HIERARCHY
ROOT Hips
{
	OFFSET 0.000000 0.000000 0.000000
	CHANNELS 6 Xposition Yposition Zposition Xrotation Yrotation Zrotation
	JOINT LeftUpLeg_virtual
	{
		OFFSET 0.000000 0.000000 0.000000
		CHANNELS 3 Xrotation Yrotation Zrotation
		JOINT LeftUpLeg
		{
			OFFSET 15.427100 -6.655098 0.678600
			CHANNELS 3 Xrotation Yrotation Zrotation
			JOINT LeftLeg
			{
				OFFSET 4.081073 -39.591068 13.024000
				CHANNELS 3 Xrotation Yrotation Zrotation
				JOINT LeftFoot
				{
					OFFSET -4.081074 -37.707932 -15.979700
					CHANNELS 3 Xrotation Yrotation Zrotation
					JOINT LeftToeBase
					{
						OFFSET 5.346399 -15.068900 20.645000
						CHANNELS 3 Xrotation Yrotation Zrotation
						JOINT LeftToe_End
						{
							OFFSET 2.754700 0.931300 11.300900
							CHANNELS 3 Xrotation Yrotation Zrotation
							End Site
							{
								OFFSET 0 0 0
							}
						}
					}
				}
			}
		}
	}
	JOINT RightUpLeg_virtual
	{
		OFFSET 0.000000 0.000000 0.000000
		CHANNELS 3 Xrotation Yrotation Zrotation
		JOINT RightUpLeg
		{
			OFFSET -15.569500 -6.655098 0.678600
			CHANNELS 3 Xrotation Yrotation Zrotation
			JOINT RightLeg
			{
				OFFSET -4.081825 -39.591045 13.023800
				CHANNELS 3 Xrotation Yrotation Zrotation
				JOINT RightFoot
				{
					OFFSET 4.081824 -37.707954 -15.979600
					CHANNELS 3 Xrotation Yrotation Zrotation
					JOINT RightToeBase
					{
						OFFSET -5.346400 -15.068900 20.645000
						CHANNELS 3 Xrotation Yrotation Zrotation
						JOINT RightToe_End
						{
							OFFSET -2.754700 0.931300 11.300900
							CHANNELS 3 Xrotation Yrotation Zrotation
							End Site
							{
								OFFSET 0 0 0
							}
						}
					}
				}
			}
		}
	}
	JOINT Spine_virtual
	{
		OFFSET 0.000000 0.000000 0.000000
		CHANNELS 3 Xrotation Yrotation Zrotation
		JOINT Spine
		{
			OFFSET -0.279200 12.230698 -2.892100
			CHANNELS 3 Xrotation Yrotation Zrotation
			JOINT Spine1
			{
				OFFSET -0.232667 10.192268 -1.242267
				CHANNELS 3 Xrotation Yrotation Zrotation
				JOINT Spine1_split
				{
					OFFSET -0.232667 10.192268 -1.242267
					CHANNELS 3 Xrotation Yrotation Zrotation
					JOINT Spine2
					{
						OFFSET -0.232667 10.192268 -1.242267
						CHANNELS 3 Xrotation Yrotation Zrotation
						JOINT Neck_virtual
						{
							OFFSET 0.000000 0.000000 0.000000
							CHANNELS 3 Xrotation Yrotation Zrotation
							JOINT Neck
							{
								OFFSET -0.418800 17.814194 8.416900
								CHANNELS 3 Xrotation Yrotation Zrotation
								JOINT Head
								{
									OFFSET 0.000000 7.031097 3.806800
									CHANNELS 3 Xrotation Yrotation Zrotation
									JOINT HeadTop_End
									{
										OFFSET 0.000000 24.646606 12.978600
										CHANNELS 3 Xrotation Yrotation Zrotation
										End Site
										{
											OFFSET 0 0 0
										}
									}
								}
							}
						}
						JOINT LeftShoulder_virtual
						{
							OFFSET 0.000000 0.000000 0.000000
							CHANNELS 3 Xrotation Yrotation Zrotation
							JOINT LeftShoulder
							{
								OFFSET 8.476499 7.247704 -3.868750
								CHANNELS 3 Xrotation Yrotation Zrotation
								JOINT LeftShoulder_split
								{
									OFFSET 8.476499 7.247704 -3.868750
									CHANNELS 3 Xrotation Yrotation Zrotation
									JOINT LeftArm
									{
										OFFSET 9.308998 -2.777710 0.208600
										CHANNELS 3 Xrotation Yrotation Zrotation
										JOINT LeftForeArm
										{
											OFFSET 29.972298 0.000000 0.000000
											CHANNELS 3 Xrotation Yrotation Zrotation
											JOINT LeftHand
											{
												OFFSET 26.026505 0.000000 0.000000
												CHANNELS 3 Xrotation Yrotation Zrotation
												End Site
												{
													OFFSET 0 0 0
												}
											}
										}
									}
								}
							}
						}
						JOINT RightShoulder_virtual
						{
							OFFSET 0.000000 0.000000 0.000000
							CHANNELS 3 Xrotation Yrotation Zrotation
							JOINT RightShoulder
							{
								OFFSET -7.570500 7.247704 -3.868750
								CHANNELS 3 Xrotation Yrotation Zrotation
								JOINT RightShoulder_split
								{
									OFFSET -7.570500 7.247704 -3.868750
									CHANNELS 3 Xrotation Yrotation Zrotation
									JOINT RightArm
									{
										OFFSET -9.308998 -2.777710 0.208500
										CHANNELS 3 Xrotation Yrotation Zrotation
										JOINT RightForeArm
										{
											OFFSET -29.972300 0.000000 0.000000
											CHANNELS 3 Xrotation Yrotation Zrotation
											JOINT RightHand
											{
												OFFSET -26.026505 0.000000 0.000000
												CHANNELS 3 Xrotation Yrotation Zrotation
												End Site
												{
													OFFSET 0 0 0
												}
											}
										}
									}
								}
							}
						}
					}
				}
			}
		}
	}
}
MOTION
Frames: 6
Frame Time: 0.03333333
8.323040 90.475319 6.266777 0.000000 0.000000 0.000000 -4.968870 10.528276 7.329361 -11.714233 -2.826430 -2.200852 22.408807 5.470759 -5.684937 -6.025973 12.331434 -2.328118 -1.402464 0.190888 -0.550672 0.000000 0.000000 0.000000 -4.229253 10.601522 6.869011 11.565508 -13.051928 -22.360192 16.605839 -10.743263 1.230715 -9.850915 -31.572744 25.039725 -4.172461 0.766261 -0.259044 0.000000 0.000000 0.000000 -0.479524 10.155334 5.879194 4.592069 3.595110 13.483361 7.279476 6.084980 1.219535 0.640052 -1.091541 0.403125 0.000000 0.000000 0.000000 1.401064 5.781441 2.812855 -13.249467 -10.438725 -4.394707 5.003949 -11.438115 -4.823763 0.000000 0.000000 0.000000 0.672783 5.791013 1.879784 0.047392 0.896341 19.002898 1.607338 0.716636 -3.108320 -37.984888 2.319359 -9.642027 -22.527859 -30.073039 8.736580 0.000000 0.000000 0.000000 -0.917375 5.190984 2.372826 6.489433 1.604869 -1.526338 0.774704 3.021869 1.807939 38.158645 -49.180743 68.224164 -14.009643 31.080861 40.219514 0.000000 0.000000 0.000000 
7.775263 90.100906 6.892326 0.000000 0.000000 0.000000 -3.900690 21.232761 5.835596 -14.943033 -7.243418 -2.170398 22.519747 3.675742 -6.293141 -5.054974 10.622110 -3.194865 -1.943753 0.617734 -0.461236 0.000000 0.000000 0.000000 -3.519219 21.200858 5.469627 13.105149 -19.306385 -19.447994 15.933571 -11.520570 1.690702 -10.682330 -30.752373 26.346849 -6.240243 0.546124 0.139739 0.000000 0.000000 0.000000 1.174967 19.768545 4.398045 1.895537 4.919081 12.546976 6.439865 7.371833 -0.039055 0.701154 -1.058851 0.276676 0.000000 0.000000 0.000000 1.027600 6.991869 1.614204 -16.675941 -15.946434 -1.388154 7.664760 -16.928839 -3.380685 0.000000 0.000000 0.000000 0.146810 7.110466 0.360521 -1.223739 7.068390 17.483341 1.603622 0.127243 -3.294977 -50.759654 6.198383 -13.142171 -27.439930 -30.314196 6.980617 0.000000 0.000000 0.000000 -0.923964 6.612582 0.990945 6.164638 1.540447 -1.839268 -0.062164 3.494652 2.644548 34.834139 -52.994762 71.129542 -14.333738 35.937317 39.432291 0.000000 0.000000 0.000000 
7.143435 89.836021 7.479507 0.000000 0.000000 0.000000 -1.939396 30.249228 4.146110 -19.205488 -11.420274 -2.698817 23.666846 2.173782 -6.859330 -3.274030 9.141916 -3.188025 -1.818741 0.889162 -0.752955 0.000000 0.000000 0.000000 -1.764291 30.436402 3.955085 13.631098 -25.154202 -16.644980 15.709087 -12.022916 2.449889 -12.502434 -29.750453 26.164616 -7.195118 0.377766 0.457175 0.000000 0.000000 0.000000 2.999345 27.888279 2.879576 -0.535188 6.229064 11.394552 5.828000 8.477463 -1.427766 0.519982 -1.088828 0.150295 0.000000 0.000000 0.000000 0.921902 8.057578 0.162857 -20.096710 -20.977302 1.911226 10.135673 -21.155174 -1.541860 0.000000 0.000000 0.000000 -0.086475 8.216636 -1.222723 -1.950543 11.152530 13.704235 2.319736 -0.672321 -2.489384 -59.531499 7.707308 -18.421237 -31.917146 -29.078151 4.072265 0.000000 0.000000 0.000000 -0.653711 7.819363 -0.466464 5.879832 2.448387 -0.754821 -0.933483 4.242074 3.174579 27.492876 -51.253074 69.168212 -10.969180 39.393717 34.936356 0.000000 0.000000 0.000000 
6.481076 89.624565 7.810814 0.000000 0.000000 0.000000 0.570263 37.457150 2.336869 -23.633850 -15.183505 -3.952230 25.003024 1.102676 -7.143227 -1.542905 8.151806 -2.186499 -1.048942 1.003872 -1.196319 0.000000 0.000000 0.000000 0.661019 37.968957 2.273699 13.464544 -30.243422 -14.418464 15.935554 -12.311162 3.308857 -15.153379 -28.793342 24.501045 -6.811427 0.289752 0.635215 0.000000 0.000000 0.000000 4.690248 34.744537 1.369156 -2.608838 7.421004 9.994459 5.548774 9.417557 -2.626440 0.400761 -1.249820 0.000012 0.000000 0.000000 0.000000 1.113314 8.941127 -1.150514 -23.658826 -25.262505 4.643209 12.120165 -24.180644 0.370756 0.000000 0.000000 0.000000 -0.064696 9.157857 -2.459276 -2.191618 13.376262 8.157437 2.871565 -1.605874 -1.131068 -64.495038 8.374979 -24.331845 -35.756508 -27.109231 0.061341 0.000000 0.000000 0.000000 -0.062741 8.826367 -1.682529 5.568967 4.179549 1.343855 -1.901388 4.374391 3.418440 18.303845 -44.293128 63.360755 -4.602424 39.768288 27.491214 0.000000 0.000000 0.000000 
5.898440 89.428284 8.011303 0.000000 0.000000 0.000000 3.145695 42.880973 0.583148 -27.633591 -18.601554 -5.850480 26.063083 0.011622 -7.095588 -0.210081 7.397365 -1.170113 -0.329731 0.974965 -1.582144 0.000000 0.000000 0.000000 3.214113 43.870018 0.558359 12.864345 -34.204993 -12.916137 16.597903 -12.212738 4.034655 -17.690639 -27.800369 22.365634 -6.168733 0.263648 0.632918 0.000000 0.000000 0.000000 6.316973 40.385245 -0.176830 -4.244245 8.413828 8.400397 5.559589 10.159762 -3.439978 0.211298 -1.186882 -0.033198 0.000000 0.000000 0.000000 1.695991 9.658443 -2.064676 -27.367620 -28.478906 6.147536 13.583207 -26.179290 2.075948 0.000000 0.000000 0.000000 0.173790 9.959402 -3.168484 -2.092005 14.121595 1.634055 2.736147 -1.780257 0.159243 -65.731773 9.656741 -29.372341 -38.987843 -26.470495 -5.262124 0.000000 0.000000 0.000000 0.751579 9.582359 -2.487219 5.202594 6.391231 3.671476 -2.999773 3.569167 3.069299 9.658895 -34.213712 55.843302 1.921090 36.903498 19.912617 0.000000 0.000000 0.000000 
5.435079 89.220123 7.946972 0.000000 0.000000 0.000000 5.482343 46.986500 -1.027929 -30.998052 -21.650899 -8.080204 26.572602 -1.107994 -6.752846 0.562506 6.657656 -0.461980 -0.599371 0.816417 -1.491751 0.000000 0.000000 0.000000 5.648949 48.405725 -1.204367 12.071171 -36.948110 -11.954212 17.594427 -11.634473 4.490136 -19.210781 -26.747033 20.709642 -6.062349 0.263776 0.490794 0.000000 0.000000 0.000000 7.845665 45.355229 -1.764937 -5.329678 9.191462 6.747850 5.761256 10.710682 -3.880293 0.327794 -1.231064 -0.142643 0.000000 0.000000 0.000000 2.600354 10.187779 -2.510981 -30.836405 -30.435927 6.292127 14.593252 -27.087393 3.246936 0.000000 0.000000 0.000000 0.468295 10.608573 -3.381597 -1.866356 14.269186 -4.969971 1.706179 -1.163880 1.154243 -64.929643 13.134056 -32.716179 -41.550155 -28.122580 -11.697904 0.000000 0.000000 0.000000 1.637701 10.113289 -2.908838 4.861176 8.504392 5.430484 -4.321227 1.839787 2.676564 2.121057 -23.850242 47.878858 6.430128 32.216848 14.167686 0.000000 0.000000 0.000000 
